<mxfile host="app.diagrams.net" modified="2024-05-30T11:02:41.092Z" agent="Mozilla/5.0 (Windows NT 10.0; Win64; x64) AppleWebKit/537.36 (KHTML, like Gecko) Chrome/125.0.0.0 Safari/537.36" etag="wQfr5IoeoHwveRWCD66u" version="24.4.10" type="github">
  <diagram name="第 1 页" id="uYNzrd-k9xfIOUDS7_Yd">
    <mxGraphModel dx="3187" dy="2849" grid="1" gridSize="10" guides="1" tooltips="1" connect="1" arrows="1" fold="1" page="1" pageScale="1" pageWidth="827" pageHeight="1169" math="0" shadow="0">
      <root>
        <mxCell id="0" />
        <mxCell id="1" parent="0" />
        <mxCell id="cqYZ8HMtrRsPlk5l7b4V-35" value="" style="rounded=0;whiteSpace=wrap;html=1;dashed=1;" vertex="1" parent="1">
          <mxGeometry x="720" y="-1030" width="540" height="320" as="geometry" />
        </mxCell>
        <mxCell id="cqYZ8HMtrRsPlk5l7b4V-16" value="" style="edgeStyle=orthogonalEdgeStyle;rounded=0;orthogonalLoop=1;jettySize=auto;html=1;" edge="1" parent="1" source="cqYZ8HMtrRsPlk5l7b4V-14" target="cqYZ8HMtrRsPlk5l7b4V-15">
          <mxGeometry relative="1" as="geometry" />
        </mxCell>
        <mxCell id="cqYZ8HMtrRsPlk5l7b4V-14" value="" style="rounded=0;whiteSpace=wrap;html=1;dashed=1;" vertex="1" parent="1">
          <mxGeometry x="50" y="-1030" width="540" height="320" as="geometry" />
        </mxCell>
        <mxCell id="cqYZ8HMtrRsPlk5l7b4V-10" value="" style="edgeStyle=orthogonalEdgeStyle;rounded=0;orthogonalLoop=1;jettySize=auto;html=1;" edge="1" parent="1" source="cqYZ8HMtrRsPlk5l7b4V-5" target="cqYZ8HMtrRsPlk5l7b4V-9">
          <mxGeometry relative="1" as="geometry" />
        </mxCell>
        <mxCell id="cqYZ8HMtrRsPlk5l7b4V-5" value="习尼玛近平" style="whiteSpace=wrap;html=1;align=center;" vertex="1" parent="1">
          <mxGeometry x="240" y="-830" width="100" height="40" as="geometry" />
        </mxCell>
        <mxCell id="cqYZ8HMtrRsPlk5l7b4V-8" style="edgeStyle=orthogonalEdgeStyle;rounded=0;orthogonalLoop=1;jettySize=auto;html=1;exitX=1;exitY=0.5;exitDx=0;exitDy=0;entryX=0;entryY=0.5;entryDx=0;entryDy=0;" edge="1" parent="1" source="cqYZ8HMtrRsPlk5l7b4V-7" target="cqYZ8HMtrRsPlk5l7b4V-5">
          <mxGeometry relative="1" as="geometry" />
        </mxCell>
        <mxCell id="cqYZ8HMtrRsPlk5l7b4V-7" value="SDK" style="text;html=1;align=center;verticalAlign=middle;whiteSpace=wrap;rounded=0;" vertex="1" parent="1">
          <mxGeometry x="90" y="-825" width="60" height="30" as="geometry" />
        </mxCell>
        <mxCell id="cqYZ8HMtrRsPlk5l7b4V-9" value="xi ni ma jin ping" style="whiteSpace=wrap;html=1;align=center;" vertex="1" parent="1">
          <mxGeometry x="420" y="-830" width="100" height="40" as="geometry" />
        </mxCell>
        <mxCell id="cqYZ8HMtrRsPlk5l7b4V-13" value="" style="edgeStyle=orthogonalEdgeStyle;rounded=0;orthogonalLoop=1;jettySize=auto;html=1;" edge="1" parent="1" source="cqYZ8HMtrRsPlk5l7b4V-11" target="cqYZ8HMtrRsPlk5l7b4V-12">
          <mxGeometry relative="1" as="geometry" />
        </mxCell>
        <mxCell id="cqYZ8HMtrRsPlk5l7b4V-11" value="Cloud" style="ellipse;shape=cloud;whiteSpace=wrap;html=1;align=center;" vertex="1" parent="1">
          <mxGeometry x="90" y="-990" width="100" height="60" as="geometry" />
        </mxCell>
        <mxCell id="cqYZ8HMtrRsPlk5l7b4V-12" value="[xi bao zi,xi jin ping,...]" style="whiteSpace=wrap;html=1;" vertex="1" parent="1">
          <mxGeometry x="260" y="-990" width="150" height="60" as="geometry" />
        </mxCell>
        <mxCell id="cqYZ8HMtrRsPlk5l7b4V-15" value="" style="rounded=0;whiteSpace=wrap;html=1;dashed=1;" vertex="1" parent="1">
          <mxGeometry x="50" y="-650" width="540" height="320" as="geometry" />
        </mxCell>
        <mxCell id="cqYZ8HMtrRsPlk5l7b4V-17" value="[xi bao zi,&lt;font color=&quot;#ff0000&quot;&gt;xi jin ping&lt;/font&gt;,...]" style="whiteSpace=wrap;html=1;" vertex="1" parent="1">
          <mxGeometry x="190" y="-600" width="150" height="60" as="geometry" />
        </mxCell>
        <mxCell id="cqYZ8HMtrRsPlk5l7b4V-18" value="&lt;span style=&quot;background-color: rgb(255, 255, 255);&quot;&gt;&lt;font color=&quot;#ff0000&quot;&gt;xi&lt;/font&gt;&lt;/span&gt; ni ma &lt;font color=&quot;#ff0000&quot;&gt;jin&lt;/font&gt; &lt;font color=&quot;#ff0000&quot;&gt;ping&lt;/font&gt;" style="whiteSpace=wrap;html=1;align=center;" vertex="1" parent="1">
          <mxGeometry x="215" y="-480" width="100" height="40" as="geometry" />
        </mxCell>
        <mxCell id="cqYZ8HMtrRsPlk5l7b4V-30" value="" style="shape=stencil(lVnRctw2DPyae8WQBEmQz2n6H5mJXd/UtTOO2yZ/HzA3pAVIWo/fLgpgEcBisaAu/On7w5dvd5cUvr++PP999//16+vDhf+4pHR9erh7ub7qrwt/vvCn++eXu79env99+nr797cvw3L8+uf5v/EXftz8eqcYh1cKP29PAtX0+8GfN/vH69PGPoZAIRiHRDmeO+gLSjH2mVoF9o1yN/ZCpQH7Srka+6gRoBdkCvZAkal04BApN+tQieXcoTXiZB00y+ANLVO3MWhSA3II1MU6FIp87iBCwR4pNUrgDcLEFhccKZVzh9qp27Qyw0LX3ZG4UgLQq5nYIo8bPlKkaqGUFbz53KH0mcTlEEkA+EqlYguXFUsghsJUbeFyoQSwVLTSLoY6nxw65LZ7gz4BMejfExu0vjOBjh4ntkGXONNw7MDU3RsShEZWSrGVLkoaATjE2cHLQSuDYgie9opiCWRJoeZoTMHSQB0UzMUGrXAU0KKs8HYOChYQA2sSbQzaIQL6IfWdg1AE/aAckZ3DorZjh0rBgk8CnA6JKTuHBLk1RWJbB1l5Ox5Y3bO3aGUAluIileUg1EBaxzTIxkHpGfV0LB58bTHVsUOmaKmyJQi+mEjcGwpkvhgncpZDhayhDskF3WZUpw7uSB0O9uFg+0EHMaMYlCptpTtjaGiZLM10zRJw6BOay15Lj8Y0BRuyihsB7SOeuoc6A0DSSZC9fQFILdSDt28g3nxwno5Ikrh+xD75cTvOgyo8RdE2XjBHgueKkU9wnp20HfUC+Qme7dQeNX7wM6TLO/Fy9/YZ4C1NYtvYI4HEU9xs7CPEj49XoK6tXiioPeoX8RSh9gKoWrOXfP4RB7XZ3Rv7Auolszs2+EH8IFO/buwzsK8TLRt7NMDLAf47rG+zeNhsb2cA2gXQ0az0+kDt0e4VvFxWewYFO2qw9sEGzoBwP2ofJ31sBwCIVwluN2AQQJMXyjrBEEGz15g9zZY7s3f5DDBe9gtUw4S41ylrRJ0A2g1glSloK1VN4kQHw/OL3yNUN8FFfGe/Fu0TQeDVK8Z/DL5hBK/hKoKyzejY5LHyK+4NZar+M23pelJX/4x6vvq7B1la8EyBF1u12uEY0DZzOkX3FLgUqPCwfVl1EUHCI08a2axOHTXmGkTLIVFFnRnmAZZDmJr8bJtzglo30o56k32WisxV59ih+JsyXZIDGh+VxFZa1/CEgm4Hi35Ei37waC0B7lo5zXZZtxt9RnXskCm760eBaR3XK7Zw+gSJRj2Am7Jv7zwmvd1yplEJugMqU0VsrqUCcmiT5dZNWYdzSrHpLiBZIJHVnXRUdCF4a0OKJTLFL9rmJPhrWm0pQQ7sV9jRtKBwsuvpsfAA5htbunOI2GGRyhJgDWapiW+gWGZljgdQ8MwXGV6i9kVbm+tyBmjtCmbLSwLHQ9/dDmYSFEGZ9wwrqZBYx4pu/36AEmnYF2cPPw+UuQK92aOdS+3dpUCAlw77eNctxLF99YMkQAGg9m7aBnynIX4pwiuC2rsdIcx7/DP7vjs/klQ7DRbgHchY0X28jM7f9udBbP3RD2Tv2+uPt69x99fHx9vHvO3/+693+uj25Y8//wI=);lineShape=1;strokeColor=#FF6666;hachureGap=4;fontFamily=Architects Daughter;fontSource=https%3A%2F%2Ffonts.googleapis.com%2Fcss%3Ffamily%3DArchitects%2BDaughter;" vertex="1" parent="1">
          <mxGeometry x="228.88638787859566" y="-561.3790887860973" width="32.489671563494085" height="91.54891284350353" as="geometry" />
        </mxCell>
        <mxCell id="cqYZ8HMtrRsPlk5l7b4V-31" value="" style="shape=stencil(lVldcxs3DPw1esXwG+Rzmv6PzMSpNXXtjOO2yb/vXjW8CKBu5bzJMlc8ENjFgnfKH749fvr6cErh29vry58P/54/vz2e8m+nlM7Pjw+v5zd8OuWPp/zhy8vrwx+vL38/f778/fXTtnL79NfLP9svfL/gxhAdGyqFH5dvgvT+/xe/X9Y/nZ+v1yfpzazPUvPx+t4lFLO+SapkfZGQzPohsZD1QbL9/Rilkw1UpdsNYpFCItAsPVqAzphuAlqXlC0Ah5wIIEmwgJSkhmNArVK7BeCbeAwoQ0KwgC6NAbJkl+YoVY8BGTvYR8o4VpIH/NslLjcZgwCQV7UAlAZJHCon2UyXKIHsgNKs1QKSaCOA4slQiiQGyDNNO6DOPY8A2T1S5zFgB3usyH0hhP7J3wmoUSLJNADNxlChCaRaAVBbGhW5J3xIiwag4JXtUETdI6k0QlHQJbsdBk9ck2J3aFEaA+AB7LG2TIUM1RrcDkUaSRz44GJoTSIj0MLppvPcbgOqDKsabdDE5T57xwRooKUBQmYbtKZJ2kNdcjugfkkeQEiXOC0ySB5K83zQJpnFgMqxjNtaDFNvhGhbrg7aE1HMxWa6Q4xJpuuSh55pDKj+YmWm11mORwC1tdQb9Q0teE7DGTQSAwDJPtIItKEAUGzQ8CqBCBkAahM3Mt8BhLR8GNAR0oE2ftlaGl0qcwK6uJ8ugx1r8doKQ1dIpiFbqXmAkhhq834JAEYgtI/hDFYI037cZpB677BtwdzJ3nCuAI27E9cVxx0lW+R7dFrfAKTuAYWJ614JO0BlkOqDVqboAVT66nQKVwDW5KBknhAqkanA3qGuAVxn8gJIzEsvPWsLmjGo3TglVkugnLMzSFwmpwRAWUuDqUBdTgl6z4QpeR+6lTejHJ5YPaCzBpGnmX83R6HWyzPRci3T7lwLDas+6PfwgEKiBoPiogKBJGLj6KKudKj5ZQC8hauNOqeW24C9Re2AQjs1XJ9/pDRbwBGgOAZFWn0AqD3WPuisCMCwme5KCYGgo7MnlbYUAFwMvVAzDYAjdU9T0A9PyRYfLBYb8jE/uz6qfMjHyOEuQrRTq5uSHwhgRBthXFwmiO3qgpRG1MW5pnmxcBtQJdri00jlO8apvVcTBHN9fcrWvr5THwpz4m6XGp2nl8kSBop1h7TMWPtAfnN98GYJfquTJAd/L3NnDg3L7M0H3WW+ujNJx+ko3jmqQytsV7hzFxD9YLJdNrAx2pf0dptB1zsal05pnKcU7usbPc/itREmK5F6XhiGtsjqOQZ/dwivW4hax+K9M/poJycE0qu7RsOIwY508Z25zZ84Ujp/UVd4x1mC3u42WNaWi4nEPdt2iLZO8ZBs5C7LBI3SYkoHXjkmQ45Z4rZx1QEaTRyUyl8rc25CCpszeZHeKGmYXNyboAwSghYfc6P+S/eJf8+zJCIWcAXRZi1Qccf65V1GJvFuVxbRrWc57t2fT5j98Pb64akWqBjBmLmrJ+7JR/ZX6HfW1znNvfN52nQ074sX5thpET9P2PXof5/la9w4z8qaX1jaa6AXnr/8Muzuenz4+ebty/np6fLi7vr//k0dvrq85csf/wM=);lineShape=1;strokeColor=#FF6666;hachureGap=4;fontFamily=Architects Daughter;fontSource=https%3A%2F%2Ffonts.googleapis.com%2Fcss%3Ffamily%3DArchitects%2BDaughter;" vertex="1" parent="1">
          <mxGeometry x="267.9122727134866" y="-559.6425444853126" width="8.59175969169051" height="89.79731095926374" as="geometry" />
        </mxCell>
        <mxCell id="cqYZ8HMtrRsPlk5l7b4V-32" value="" style="shape=stencil(lVnZchs3EPwavk7hGhzPjvMfrrIcsaJILlm5/j6NsLAiBmTDepOW0wvM3TN7ip9+PH75/nAK7sfb68vvD3+fv749nuIvpxDOz48Pr+c3/HWKn0/x07eX14ffXl/+fP56+f/7ly7Z//rj5a/+hn8uuFSltY4K7t/LEyc1///g14v80/n5Sj42aWmSj5IakVdpdZLPEiqRT+Lm+zSJhb6//3Yl7wO/UJPiZ4BKivcBSSXnGVDHmTcBigu4CQCbZqJDduJmHUKQSoyUVepspKDiiA4liM5eCEU8sVJpkmYrwQ+JXKkmybPS0UtJBNCs42IcWt0ENLzPnIDYIn5ocUTaAShSiA4tSZiVRrAwxwEQ5xMSVxpXMtmWjif3AH4OvpQlMkCwfkCGU6WPdBkA9eKY0kHKfCWNNB+gQ5w9rUhaEq0AZHOlIoEUpW5WcyVUDU8d53WuSl4iOyGJzmbNh1a3AYeKBwApyk5AMJcZkEelug3Iw68HoHKzFluXcuOhUUdRGYDiuR+q5DmBUHioDtUqXRLX4egGB0BHWbgHMH4oZZS2u4DZrKiFTilA51iqTpRYyTvU+9kR1UtjWtfRoQ5A5GZCg5jNhPqsRGtU4zq39ZrplXCBZLRuo1Td7ihF3GxXFHTPela08Y3KU4mrc7GOQNYmBkCdmQsTcopdCYA6x3ePeHZCEG9O4MHUC121gEQACSlcLKAQPyQ3+scVoJETohs2OfjPewDfRIDuOF2OIADvbeNtvPEimJOVZ9XYja585Td2ITfI0ZV8In092DLWSydLtyW0i2QSeL7YigEA61dg2aVZQCA3AjWykcoB4CF1OYFdCU3fLzpkYlTQ4lo/YtWez9ECWPIAYAOVx4UupHUTeJgFdAHQyI522tjkDlizofbb9Fz42KYC+IVebWpMlrTUJOYHL3mpF45ExtI/N2X44/KGEqMvMKeFpXyB/RGSXpf3x9F+b9tHrY87aydh1wuesSieMEAdPx/tvI4KcjvssqhhGJlmc0q2jYCSsE2AupHsP8mSAEhzmG6IGADFcMNNd3a2bm/IJAAmsjd0tc9ec6faEGIA0ocoNwBmIbMh9ShhhtRvxoY+Ds46bAYTTVbpzegDgOlum+EKvUeNDnx804VAbwZEzeMCPzmCAmCnYj7kAmCnYj5G9/fNwbcZ1AEwzWqzCtBlotwsG6BDnU8AjWAUHSqadeNmYaJqR6W+kmE5rRJnQF/6MB3UTg3gTpV5Wq3j3pei98Lb8Ji+FWWOc4MiXC3f2C4NVvdmH8hpCWySZqVDGbuvu7Rkzoeg48zbHQjpMnsaPIUF30q6++qakehs27Sv48zbU7Tln70PEzekRT5Q+WiXUDABG/WWsiqBpE4Z5ed9UR/ZDJZsb3ODid7jJFWNPFsQY4QxGwZHK3BYWqfj8QN+4Y28Y/LLcsvRHIsY5YuVZ7w8Dwp4Jc8+Mzi76XXjS8i9QUGtfVg4IOWDfT8LflRyb+2j7P3NNkBHy+hHPzzt5fHH+1eub+enp8tHsuvf7VcxPLp8UYuf/wM=);lineShape=1;strokeColor=#FF6666;hachureGap=4;fontFamily=Architects Daughter;fontSource=https%3A%2F%2Ffonts.googleapis.com%2Fcss%3Ffamily%3DArchitects%2BDaughter;" vertex="1" parent="1">
          <mxGeometry x="294.5892744154012" y="-559.1149838361096" width="3.975811290841453" height="90.38780759383606" as="geometry" />
        </mxCell>
        <mxCell id="cqYZ8HMtrRsPlk5l7b4V-33" value="命中关键字 : xi jin ping" style="text;html=1;align=center;verticalAlign=middle;whiteSpace=wrap;rounded=0;fontFamily=Architects Daughter;fontSource=https%3A%2F%2Ffonts.googleapis.com%2Fcss%3Ffamily%3DArchitects%2BDaughter;" vertex="1" parent="1">
          <mxGeometry x="215" y="-400" width="145" height="30" as="geometry" />
        </mxCell>
        <mxCell id="cqYZ8HMtrRsPlk5l7b4V-34" value="" style="edgeStyle=orthogonalEdgeStyle;rounded=0;orthogonalLoop=1;jettySize=auto;html=1;" edge="1" parent="1" source="cqYZ8HMtrRsPlk5l7b4V-35" target="cqYZ8HMtrRsPlk5l7b4V-44">
          <mxGeometry relative="1" as="geometry" />
        </mxCell>
        <mxCell id="cqYZ8HMtrRsPlk5l7b4V-37" value="习尼玛近平" style="whiteSpace=wrap;html=1;align=center;" vertex="1" parent="1">
          <mxGeometry x="910" y="-830" width="100" height="40" as="geometry" />
        </mxCell>
        <mxCell id="cqYZ8HMtrRsPlk5l7b4V-38" style="edgeStyle=orthogonalEdgeStyle;rounded=0;orthogonalLoop=1;jettySize=auto;html=1;exitX=1;exitY=0.5;exitDx=0;exitDy=0;entryX=0;entryY=0.5;entryDx=0;entryDy=0;" edge="1" parent="1" source="cqYZ8HMtrRsPlk5l7b4V-39" target="cqYZ8HMtrRsPlk5l7b4V-37">
          <mxGeometry relative="1" as="geometry" />
        </mxCell>
        <mxCell id="cqYZ8HMtrRsPlk5l7b4V-39" value="SDK" style="text;html=1;align=center;verticalAlign=middle;whiteSpace=wrap;rounded=0;" vertex="1" parent="1">
          <mxGeometry x="760" y="-825" width="60" height="30" as="geometry" />
        </mxCell>
        <mxCell id="cqYZ8HMtrRsPlk5l7b4V-41" value="" style="edgeStyle=orthogonalEdgeStyle;rounded=0;orthogonalLoop=1;jettySize=auto;html=1;" edge="1" parent="1" source="cqYZ8HMtrRsPlk5l7b4V-42" target="cqYZ8HMtrRsPlk5l7b4V-43">
          <mxGeometry relative="1" as="geometry" />
        </mxCell>
        <mxCell id="cqYZ8HMtrRsPlk5l7b4V-42" value="Cloud" style="ellipse;shape=cloud;whiteSpace=wrap;html=1;align=center;" vertex="1" parent="1">
          <mxGeometry x="760" y="-980" width="100" height="60" as="geometry" />
        </mxCell>
        <mxCell id="cqYZ8HMtrRsPlk5l7b4V-43" value="[习包子,习近平,...]" style="whiteSpace=wrap;html=1;" vertex="1" parent="1">
          <mxGeometry x="930" y="-980" width="150" height="60" as="geometry" />
        </mxCell>
        <mxCell id="cqYZ8HMtrRsPlk5l7b4V-44" value="" style="rounded=0;whiteSpace=wrap;html=1;dashed=1;" vertex="1" parent="1">
          <mxGeometry x="720" y="-650" width="540" height="320" as="geometry" />
        </mxCell>
        <mxCell id="cqYZ8HMtrRsPlk5l7b4V-45" value="[习包子,&lt;font color=&quot;#ff0000&quot;&gt;习近平&lt;/font&gt;,...]" style="whiteSpace=wrap;html=1;" vertex="1" parent="1">
          <mxGeometry x="860" y="-600" width="150" height="60" as="geometry" />
        </mxCell>
        <mxCell id="cqYZ8HMtrRsPlk5l7b4V-46" value="&lt;font color=&quot;#ff0000&quot;&gt;&lt;span style=&quot;background-color: rgb(255, 255, 255);&quot;&gt;习&lt;/span&gt;&lt;/font&gt;&amp;nbsp;尼 玛&amp;nbsp;&lt;font color=&quot;#ff0000&quot;&gt;近&lt;/font&gt;&amp;nbsp; &lt;font color=&quot;#ff0000&quot;&gt;平&lt;/font&gt;" style="whiteSpace=wrap;html=1;align=center;" vertex="1" parent="1">
          <mxGeometry x="885" y="-480" width="100" height="40" as="geometry" />
        </mxCell>
        <mxCell id="cqYZ8HMtrRsPlk5l7b4V-47" value="" style="shape=stencil(lVnRctw2DPyae8WQBEmQz2n6H5mJXd/UtTOO2yZ/HzA3pAVIWo/fLgpgEcBisaAu/On7w5dvd5cUvr++PP999//16+vDhf+4pHR9erh7ub7qrwt/vvCn++eXu79env99+nr797cvw3L8+uf5v/EXftz8eqcYh1cKP29PAtX0+8GfN/vH69PGPoZAIRiHRDmeO+gLSjH2mVoF9o1yN/ZCpQH7Srka+6gRoBdkCvZAkal04BApN+tQieXcoTXiZB00y+ANLVO3MWhSA3II1MU6FIp87iBCwR4pNUrgDcLEFhccKZVzh9qp27Qyw0LX3ZG4UgLQq5nYIo8bPlKkaqGUFbz53KH0mcTlEEkA+EqlYguXFUsghsJUbeFyoQSwVLTSLoY6nxw65LZ7gz4BMejfExu0vjOBjh4ntkGXONNw7MDU3RsShEZWSrGVLkoaATjE2cHLQSuDYgie9opiCWRJoeZoTMHSQB0UzMUGrXAU0KKs8HYOChYQA2sSbQzaIQL6IfWdg1AE/aAckZ3DorZjh0rBgk8CnA6JKTuHBLk1RWJbB1l5Ox5Y3bO3aGUAluIileUg1EBaxzTIxkHpGfV0LB58bTHVsUOmaKmyJQi+mEjcGwpkvhgncpZDhayhDskF3WZUpw7uSB0O9uFg+0EHMaMYlCptpTtjaGiZLM10zRJw6BOay15Lj8Y0BRuyihsB7SOeuoc6A0DSSZC9fQFILdSDt28g3nxwno5Ikrh+xD75cTvOgyo8RdE2XjBHgueKkU9wnp20HfUC+Qme7dQeNX7wM6TLO/Fy9/YZ4C1NYtvYI4HEU9xs7CPEj49XoK6tXiioPeoX8RSh9gKoWrOXfP4RB7XZ3Rv7Auolszs2+EH8IFO/buwzsK8TLRt7NMDLAf47rG+zeNhsb2cA2gXQ0az0+kDt0e4VvFxWewYFO2qw9sEGzoBwP2ofJ31sBwCIVwluN2AQQJMXyjrBEEGz15g9zZY7s3f5DDBe9gtUw4S41ylrRJ0A2g1glSloK1VN4kQHw/OL3yNUN8FFfGe/Fu0TQeDVK8Z/DL5hBK/hKoKyzejY5LHyK+4NZar+M23pelJX/4x6vvq7B1la8EyBF1u12uEY0DZzOkX3FLgUqPCwfVl1EUHCI08a2axOHTXmGkTLIVFFnRnmAZZDmJr8bJtzglo30o56k32WisxV59ih+JsyXZIDGh+VxFZa1/CEgm4Hi35Ei37waC0B7lo5zXZZtxt9RnXskCm760eBaR3XK7Zw+gSJRj2Am7Jv7zwmvd1yplEJugMqU0VsrqUCcmiT5dZNWYdzSrHpLiBZIJHVnXRUdCF4a0OKJTLFL9rmJPhrWm0pQQ7sV9jRtKBwsuvpsfAA5htbunOI2GGRyhJgDWapiW+gWGZljgdQ8MwXGV6i9kVbm+tyBmjtCmbLSwLHQ9/dDmYSFEGZ9wwrqZBYx4pu/36AEmnYF2cPPw+UuQK92aOdS+3dpUCAlw77eNctxLF99YMkQAGg9m7aBnynIX4pwiuC2rsdIcx7/DP7vjs/klQ7DRbgHchY0X28jM7f9udBbP3RD2Tv2+uPt69x99fHx9vHvO3/+693+uj25Y8//wI=);lineShape=1;strokeColor=#FF6666;hachureGap=4;fontFamily=Architects Daughter;fontSource=https%3A%2F%2Ffonts.googleapis.com%2Fcss%3Ffamily%3DArchitects%2BDaughter;" vertex="1" parent="1">
          <mxGeometry x="898.8863878785957" y="-561.3790887860973" width="32.489671563494085" height="91.54891284350353" as="geometry" />
        </mxCell>
        <mxCell id="cqYZ8HMtrRsPlk5l7b4V-48" value="" style="shape=stencil(lVldcxs3DPw1esXwG+Rzmv6PzMSpNXXtjOO2yb/vXjW8CKBu5bzJMlc8ENjFgnfKH749fvr6cErh29vry58P/54/vz2e8m+nlM7Pjw+v5zd8OuWPp/zhy8vrwx+vL38/f778/fXTtnL79NfLP9svfL/gxhAdGyqFH5dvgvT+/xe/X9Y/nZ+v1yfpzazPUvPx+t4lFLO+SapkfZGQzPohsZD1QbL9/Rilkw1UpdsNYpFCItAsPVqAzphuAlqXlC0Ah5wIIEmwgJSkhmNArVK7BeCbeAwoQ0KwgC6NAbJkl+YoVY8BGTvYR8o4VpIH/NslLjcZgwCQV7UAlAZJHCon2UyXKIHsgNKs1QKSaCOA4slQiiQGyDNNO6DOPY8A2T1S5zFgB3usyH0hhP7J3wmoUSLJNADNxlChCaRaAVBbGhW5J3xIiwag4JXtUETdI6k0QlHQJbsdBk9ck2J3aFEaA+AB7LG2TIUM1RrcDkUaSRz44GJoTSIj0MLppvPcbgOqDKsabdDE5T57xwRooKUBQmYbtKZJ2kNdcjugfkkeQEiXOC0ySB5K83zQJpnFgMqxjNtaDFNvhGhbrg7aE1HMxWa6Q4xJpuuSh55pDKj+YmWm11mORwC1tdQb9Q0teE7DGTQSAwDJPtIItKEAUGzQ8CqBCBkAahM3Mt8BhLR8GNAR0oE2ftlaGl0qcwK6uJ8ugx1r8doKQ1dIpiFbqXmAkhhq834JAEYgtI/hDFYI037cZpB677BtwdzJ3nCuAI27E9cVxx0lW+R7dFrfAKTuAYWJ614JO0BlkOqDVqboAVT66nQKVwDW5KBknhAqkanA3qGuAVxn8gJIzEsvPWsLmjGo3TglVkugnLMzSFwmpwRAWUuDqUBdTgl6z4QpeR+6lTejHJ5YPaCzBpGnmX83R6HWyzPRci3T7lwLDas+6PfwgEKiBoPiogKBJGLj6KKudKj5ZQC8hauNOqeW24C9Re2AQjs1XJ9/pDRbwBGgOAZFWn0AqD3WPuisCMCwme5KCYGgo7MnlbYUAFwMvVAzDYAjdU9T0A9PyRYfLBYb8jE/uz6qfMjHyOEuQrRTq5uSHwhgRBthXFwmiO3qgpRG1MW5pnmxcBtQJdri00jlO8apvVcTBHN9fcrWvr5THwpz4m6XGp2nl8kSBop1h7TMWPtAfnN98GYJfquTJAd/L3NnDg3L7M0H3WW+ujNJx+ko3jmqQytsV7hzFxD9YLJdNrAx2pf0dptB1zsal05pnKcU7usbPc/itREmK5F6XhiGtsjqOQZ/dwivW4hax+K9M/poJycE0qu7RsOIwY508Z25zZ84Ujp/UVd4x1mC3u42WNaWi4nEPdt2iLZO8ZBs5C7LBI3SYkoHXjkmQ45Z4rZx1QEaTRyUyl8rc25CCpszeZHeKGmYXNyboAwSghYfc6P+S/eJf8+zJCIWcAXRZi1Qccf65V1GJvFuVxbRrWc57t2fT5j98Pb64akWqBjBmLmrJ+7JR/ZX6HfW1znNvfN52nQ074sX5thpET9P2PXof5/la9w4z8qaX1jaa6AXnr/8Muzuenz4+ebty/np6fLi7vr//k0dvrq85csf/wM=);lineShape=1;strokeColor=#FF6666;hachureGap=4;fontFamily=Architects Daughter;fontSource=https%3A%2F%2Ffonts.googleapis.com%2Fcss%3Ffamily%3DArchitects%2BDaughter;" vertex="1" parent="1">
          <mxGeometry x="937.9122727134866" y="-559.6425444853126" width="8.59175969169051" height="89.79731095926374" as="geometry" />
        </mxCell>
        <mxCell id="cqYZ8HMtrRsPlk5l7b4V-49" value="" style="shape=stencil(lVnZchs3EPwavk7hGhzPjvMfrrIcsaJILlm5/j6NsLAiBmTDepOW0wvM3TN7ip9+PH75/nAK7sfb68vvD3+fv749nuIvpxDOz48Pr+c3/HWKn0/x07eX14ffXl/+fP56+f/7ly7Z//rj5a/+hn8uuFSltY4K7t/LEyc1///g14v80/n5Sj42aWmSj5IakVdpdZLPEiqRT+Lm+zSJhb6//3Yl7wO/UJPiZ4BKivcBSSXnGVDHmTcBigu4CQCbZqJDduJmHUKQSoyUVepspKDiiA4liM5eCEU8sVJpkmYrwQ+JXKkmybPS0UtJBNCs42IcWt0ENLzPnIDYIn5ocUTaAShSiA4tSZiVRrAwxwEQ5xMSVxpXMtmWjif3AH4OvpQlMkCwfkCGU6WPdBkA9eKY0kHKfCWNNB+gQ5w9rUhaEq0AZHOlIoEUpW5WcyVUDU8d53WuSl4iOyGJzmbNh1a3AYeKBwApyk5AMJcZkEelug3Iw68HoHKzFluXcuOhUUdRGYDiuR+q5DmBUHioDtUqXRLX4egGB0BHWbgHMH4oZZS2u4DZrKiFTilA51iqTpRYyTvU+9kR1UtjWtfRoQ5A5GZCg5jNhPqsRGtU4zq39ZrplXCBZLRuo1Td7ihF3GxXFHTPela08Y3KU4mrc7GOQNYmBkCdmQsTcopdCYA6x3ePeHZCEG9O4MHUC121gEQACSlcLKAQPyQ3+scVoJETohs2OfjPewDfRIDuOF2OIADvbeNtvPEimJOVZ9XYja585Td2ITfI0ZV8In092DLWSydLtyW0i2QSeL7YigEA61dg2aVZQCA3AjWykcoB4CF1OYFdCU3fLzpkYlTQ4lo/YtWez9ECWPIAYAOVx4UupHUTeJgFdAHQyI522tjkDlizofbb9Fz42KYC+IVebWpMlrTUJOYHL3mpF45ExtI/N2X44/KGEqMvMKeFpXyB/RGSXpf3x9F+b9tHrY87aydh1wuesSieMEAdPx/tvI4KcjvssqhhGJlmc0q2jYCSsE2AupHsP8mSAEhzmG6IGADFcMNNd3a2bm/IJAAmsjd0tc9ec6faEGIA0ocoNwBmIbMh9ShhhtRvxoY+Ds46bAYTTVbpzegDgOlum+EKvUeNDnx804VAbwZEzeMCPzmCAmCnYj7kAmCnYj5G9/fNwbcZ1AEwzWqzCtBlotwsG6BDnU8AjWAUHSqadeNmYaJqR6W+kmE5rRJnQF/6MB3UTg3gTpV5Wq3j3pei98Lb8Ji+FWWOc4MiXC3f2C4NVvdmH8hpCWySZqVDGbuvu7Rkzoeg48zbHQjpMnsaPIUF30q6++qakehs27Sv48zbU7Tln70PEzekRT5Q+WiXUDABG/WWsiqBpE4Z5ed9UR/ZDJZsb3ODid7jJFWNPFsQY4QxGwZHK3BYWqfj8QN+4Y28Y/LLcsvRHIsY5YuVZ7w8Dwp4Jc8+Mzi76XXjS8i9QUGtfVg4IOWDfT8LflRyb+2j7P3NNkBHy+hHPzzt5fHH+1eub+enp8tHsuvf7VcxPLp8UYuf/wM=);lineShape=1;strokeColor=#FF6666;hachureGap=4;fontFamily=Architects Daughter;fontSource=https%3A%2F%2Ffonts.googleapis.com%2Fcss%3Ffamily%3DArchitects%2BDaughter;" vertex="1" parent="1">
          <mxGeometry x="964.5892744154012" y="-559.1149838361096" width="3.975811290841453" height="90.38780759383606" as="geometry" />
        </mxCell>
        <mxCell id="cqYZ8HMtrRsPlk5l7b4V-50" value="命中关键字 : 习近平" style="text;html=1;align=center;verticalAlign=middle;whiteSpace=wrap;rounded=0;fontFamily=Architects Daughter;fontSource=https%3A%2F%2Ffonts.googleapis.com%2Fcss%3Ffamily%3DArchitects%2BDaughter;" vertex="1" parent="1">
          <mxGeometry x="885" y="-400" width="145" height="30" as="geometry" />
        </mxCell>
        <mxCell id="cqYZ8HMtrRsPlk5l7b4V-51" value="简单匹配" style="text;html=1;align=center;verticalAlign=middle;whiteSpace=wrap;rounded=0;fontFamily=Architects Daughter;fontSource=https%3A%2F%2Ffonts.googleapis.com%2Fcss%3Ffamily%3DArchitects%2BDaughter;" vertex="1" parent="1">
          <mxGeometry x="630" y="-1140" width="60" height="30" as="geometry" />
        </mxCell>
        <mxCell id="cqYZ8HMtrRsPlk5l7b4V-52" value="转为拼音" style="text;html=1;align=center;verticalAlign=middle;whiteSpace=wrap;rounded=0;fontFamily=Architects Daughter;fontSource=https%3A%2F%2Ffonts.googleapis.com%2Fcss%3Ffamily%3DArchitects%2BDaughter;" vertex="1" parent="1">
          <mxGeometry x="268" y="-1070" width="60" height="30" as="geometry" />
        </mxCell>
        <mxCell id="cqYZ8HMtrRsPlk5l7b4V-53" value="不转为拼音" style="text;html=1;align=center;verticalAlign=middle;whiteSpace=wrap;rounded=0;fontFamily=Architects Daughter;fontSource=https%3A%2F%2Ffonts.googleapis.com%2Fcss%3Ffamily%3DArchitects%2BDaughter;" vertex="1" parent="1">
          <mxGeometry x="970" y="-1080" width="80" height="30" as="geometry" />
        </mxCell>
      </root>
    </mxGraphModel>
  </diagram>
</mxfile>
